<svg data-v-0dd9719b="" version="1.0" xmlns="http://www.w3.org/2000/svg" xmlns:xlink="http://www.w3.org/1999/xlink" width="340" height="250" viewBox="0 0 340.000000 250.000000" preserveAspectRatio="xMidYMid meet" color-interpolation-filters="sRGB" style="margin: auto;"> <rect data-v-0dd9719b="" x="0" y="0" width="100%" height="100%" fill="#1B758C" fill-opacity="0" class="background"></rect> <!----> <g data-v-0dd9719b="" fill="#1B758C" class="mojosvg mojo-g" transform="translate(47.47480773925781,78.74439239501953)"><g class="iconsvg-imagesvg" transform="translate(0,0)" fill="#1B758C"><g fill="#1B758C"><rect fill="#FFFFFF" fill-opacity="0" stroke-width="2px" x="0" y="0" width="60" height="92.51121698505945" class="image-rect"></rect> <svg filter="url(#colors5011941574)" x="0" y="0" width="60" height="92.51121698505945" filtersec="colorsf9675118517" class="image-svg-svg primary" style="overflow: visible;" fill="#1B758C"><svg xmlns="http://www.w3.org/2000/svg" viewBox="0 0 19.950000762939453 30.760000228881836" fill="#1B758C"><defs><linearGradient id="d123628a-19a2-45f8-b4af-9b4d4175b0c9" x1="6.96" y1="30.76" x2="6.96" gradientUnits="userSpaceOnUse"><stop offset="0" stop-color="#1B758C"></stop><stop offset="1" stop-color="#efefef"></stop></linearGradient><linearGradient id="d123628a-19a2-45f8-b4af-9b4d4175b0c9" x1="6.96" y1="30.76" x2="6.96" gradientUnits="userSpaceOnUse"><stop offset="0" stop-color="#1B758C"></stop><stop offset="1" stop-color="#efefef"></stop></linearGradient><linearGradient id="d123628a-19a2-45f8-b4af-9b4d4175b0c9" x1="6.96" y1="30.76" x2="6.96" gradientUnits="userSpaceOnUse"><stop offset="0" stop-color="#1B758C"></stop><stop offset="1" stop-color="#efefef"></stop></linearGradient><linearGradient id="d123628a-19a2-45f8-b4af-9b4d4175b0c9" x1="6.96" y1="30.76" x2="6.96" gradientUnits="userSpaceOnUse"><stop offset="0" stop-color="#1B758C"></stop><stop offset="1" stop-color="#efefef"></stop></linearGradient><linearGradient id="d123628a-19a2-45f8-b4af-9b4d4175b0c9" x1="6.96" y1="30.76" x2="6.96" gradientUnits="userSpaceOnUse"><stop offset="0" stop-color="#1B758C"></stop><stop offset="1" stop-color="#efefef"></stop></linearGradient></defs><g fill="#1B758C"><g fill="#1B758C"><path fill="url(&quot;#d123628a-19a2-45f8-b4af-9b4d4175b0c9&quot;)" d="M0 0v6.9h6.07v23.86h7.86v-6.63L6.19 0H0z"></path><path fill="#1B758C" d="M19.95 6.9V0H6.19l7.74 24.13V6.9h6.02z"></path></g></g></svg></svg> <defs><filter id="colors5011941574"><feColorMatrix type="matrix" values="0 0 0 0 0.99609375  0 0 0 0 0.99609375  0 0 0 0 0.99609375  0 0 0 1 0" class="icon-fecolormatrix"></feColorMatrix></filter> <filter id="colorsf9675118517"><feColorMatrix type="matrix" values="0 0 0 0 0.99609375  0 0 0 0 0.99609375  0 0 0 0 0.99609375  0 0 0 1 0" class="icon-fecolormatrix"></feColorMatrix></filter> <filter id="colorsb6041527899"><feColorMatrix type="matrix" values="0 0 0 0 0  0 0 0 0 0  0 0 0 0 0  0 0 0 1 0" class="icon-fecolormatrix"></feColorMatrix></filter></defs></g></g><g transform="translate(72,12.155609130859375)" fill="#1B758C"><g class="tp-name" fill="#1B758C"><g transform="translate(0, 0)" fill="#1B758C"><g data-gra="path-name" fill="#FFFFFF" transform="translate(0,3)"><g transform="scale(1)" fill="#FFFFFF"><path d="M4.64-11.99Q5.66-15.19 9.88-16.25Q14.10-17.30 18.06-17.30L18.06-17.30Q21.69-17.22 27.14-17.05Q32.58-16.88 36.30-16.71L36.30-16.71Q35.45-14.77 32.46-13.46Q29.46-12.15 26.00-12.15L26.00-12.15Q25.24-12.15 22.20-12.32L22.20-12.32Q18.32-12.66 15.45-12.66L15.45-12.66Q12.66-12.66 9.45-12.41Q6.25-12.15 4.64-11.99L4.64-11.99Z" transform="translate(-4.642502482621648, 60.85898709036742)" fill="#FFFFFF"></path></g></g></g><g transform="translate(33.65342601787488, 0)" fill="#1B758C"><g data-gra="path-name" fill="#FFFFFF" transform="translate(0,3)"><g transform="scale(1)" fill="#FFFFFF"><path d="M4.73 7.34L6.67 1.18Q14.10-22.54 22.62-52.00L22.62-52.00Q23.21-54.36 23.21-55.29L23.21-55.29Q23.21-55.96 23.00-56.22Q22.79-56.47 22.12-56.47L22.12-56.47Q19.84-56.47 17.73-54.15Q15.62-51.83 14.31-48.58Q13.00-45.33 13.00-42.80L13.00-42.80Q13.00-40.77 13.84-38.83L13.84-38.83Q10.30-38.83 8.69-40.31Q7.09-41.78 7.09-44.31L7.09-44.31Q7.09-47.94 10.04-51.83Q13.00-55.71 17.18-58.24Q21.36-60.77 24.56-60.77L24.56-60.77Q28.19-60.77 30.39-57.31Q32.58-53.85 33.72-48.62Q34.86-43.39 36.21-34.35L36.21-34.35Q37.73-23.63 38.49-18.78Q39.25-13.93 40.09-9.62L40.09-9.62L43.30-23.04Q46.59-37.31 48.70-45.12Q50.81-52.92 52.84-56.39L52.84-56.39Q55.37-60.86 59.68-60.86L59.68-60.86Q56.64-53.01 52.67-39.08Q48.70-25.15 45.92-12.03Q43.13 1.10 43.13 7.34L43.13 7.34Q39.84 7.34 37.90 5.78Q35.96 4.22 35.03 0.08L35.03 0.08Q34.02-4.22 28.02-37.39L28.02-37.39Q27.35-41.11 26.93-43.39Q26.50-45.67 26.34-46.85L26.34-46.85Q19.33-21.36 16.12-10.93Q12.91-0.51 10.47 3.42Q8.02 7.34 4.73 7.34L4.73 7.34Z" transform="translate(-4.726911618669314, 60.85898709036742)" fill="#FFFFFF"></path></g></g></g><g transform="translate(90.60377358490565, 0)" fill="#1B758C"><g data-gra="path-name" fill="#FFFFFF" transform="translate(0,3)"><g transform="scale(1)" fill="#FFFFFF"><path d="M4.73 3.97Q1.77 3.97-0.21 2.03Q-2.19 0.08-2.19-3.46L-2.19-3.46Q-2.19-8.36 1.39-14.43Q4.98-20.51 10.55-24.73Q16.12-28.95 21.69-28.95L21.69-28.95Q25.41-28.95 27.90-27.05Q30.39-25.15 30.39-22.20L30.39-22.20Q30.39-18.32 25.58-18.15L25.58-18.15Q28.61-17.22 28.61-15.62L28.61-15.62Q28.61-15.02 28.02-13.84Q27.43-12.66 26.67-11.40L26.67-11.40Q25.32-9.20 24.56-7.55Q23.80-5.91 23.80-4.47L23.80-4.47Q23.80-3.21 24.44-2.32Q25.07-1.43 26.34-1.43L26.34-1.43Q28.70-1.43 32.37-4.73Q36.04-8.02 39.50-14.60L39.50-14.60L41.11-13.00Q37.98-5.99 33.34-1.73Q28.70 2.53 23.97 2.53L23.97 2.53Q20.60 2.53 18.78 0.30Q16.97-1.94 16.97-4.81L16.97-4.81Q13.17-0.25 10.47 1.86Q7.77 3.97 4.73 3.97L4.73 3.97ZM6.50-0.34Q9.45-0.34 13.38-4.60Q17.30-8.86 22.28-15.70L22.28-15.70L23.97-17.98Q24.23-18.40 24.65-18.40L24.65-18.40L24.99-18.32Q25.41-19.67 25.41-21.44L25.41-21.44Q25.41-25.83 21.86-25.83L21.86-25.83Q18.15-25.83 14.10-21.86Q10.04-17.89 7.30-12.41Q4.56-6.92 4.56-3.04L4.56-3.04Q4.56-1.60 5.02-0.97Q5.49-0.34 6.50-0.34L6.50-0.34Z" transform="translate(2.1946375372393243, 60.85898709036742)" fill="#FFFFFF"></path></g></g></g><g transform="translate(135.9056603773585, 0)" fill="#1B758C"><g data-gra="path-name" fill="#FFFFFF" transform="translate(0,3)"><g transform="scale(1)" fill="#FFFFFF"><path d="M6.25 3.29Q3.21 3.29 1.94 0.63Q0.68-2.03 0.68-6.84L0.68-6.84Q0.68-9.20 1.01-16.88L1.01-16.88Q1.10-19.58 1.60-20.43Q2.11-21.27 4.22-21.27L4.22-21.27Q6.16-21.27 6.58-20.55Q7.01-19.84 7.01-17.22L7.01-17.22Q7.01-15.62 6.84-11.90L6.84-11.90Q6.58-9.12 6.58-6.25L6.58-6.25Q6.58-3.38 6.88-2.28Q7.17-1.18 8.10-1.18L8.10-1.18Q10.80-1.18 14.64-6.54Q18.49-11.90 21.36-18.40L21.36-18.40Q21.52-23.80 22.62-25.91Q23.72-28.02 25.74-28.02L25.74-28.02Q27.60-28.02 28.49-26.84Q29.37-25.66 29.37-24.31L29.37-24.31Q29.37-23.47 28.99-22.71Q28.61-21.95 28.53-21.69L28.53-21.69Q27.69-20.26 27.18-18.53Q26.67-16.80 26.67-13.84L26.67-13.84Q26.67-7.93 30.30-7.93L30.30-7.93Q31.99-7.93 33.59-9.37Q35.20-10.80 36.89-14.18L36.89-14.18L37.82-13.42Q35.96-9.03 33.64-7.05Q31.32-5.06 28.87-5.06L28.87-5.06Q26.25-5.06 24.44-7.17Q22.62-9.29 21.69-12.91L21.69-12.91Q17.98-5.99 13.97-1.35Q9.96 3.29 6.25 3.29L6.25 3.29Z" transform="translate(-0.6752730883813306, 60.85898709036742)" fill="#FFFFFF"></path></g></g></g></g></g></g><defs v-gra="od"></defs></svg>