<svg data-v-0dd9719b="" version="1.0" xmlns="http://www.w3.org/2000/svg" xmlns:xlink="http://www.w3.org/1999/xlink" width="340" height="250" viewBox="0 0 340.000000 250.000000" preserveAspectRatio="xMidYMid meet" color-interpolation-filters="sRGB" style="margin: auto;"> <rect data-v-0dd9719b="" x="0" y="0" width="100%" height="100%" fill="#FCFCFC" fill-opacity="0" class="background"></rect> <!----> <g data-v-0dd9719b="" fill="#48385D" class="endsvg" transform="translate(130.2599983215332,88.77296829223633)"><!----> <!----> <!----> <!----> <g class="tp-name" fill="#48385D"><g fill="#48385D"><rect data-gra="graph-name-bg" stroke-width="2px" class="i-icon-bg" x="0" y="0" width="79.4800033569336" height="72.45406341552734" fill-opacity="0" fill="#48385D"></rect> <!----> <!----> </g> <g transform="translate(0,0)" fill="#48385D"><g data-gra="path-name-bg" mask="url(#4bceb3de-f4bd-43b6-9cc5-1aff818cec24)" fill="#48385D"><g fill="#48385D"><rect data-gra="graph-name-bg" stroke-width="2px" class="i-icon-bg" x="0" y="0" width="79.4800033569336" height="46.78999710083008" fill="#48385D"></rect> <!----> <!----> </g> <g transform="translate(5,5)" fill="#48385D"><g data-gra="path-name" fill="#48385D"><g transform="scale(1)" fill="#48385D"><path d="M24.77-3.90L12.29-3.90L16.64-34.45L2.93-34.45L3.58-40.69L43.48-40.69L42.25-34.45L29.12-34.45L24.77-3.90ZM72.41-22.36L71.31-15.73L49.14-15.73L50.18-22.36L72.41-22.36Z" transform="translate(-2.9250000000000003, 40.690000000000005)" fill="#48385D"></path></g></g></g></g> <g data-gra="path-name-1-bg" transform="translate(0, 51.78999710083008) scale(0.5616762701980402)" fill="#48385D"><g fill="#48385D"><rect data-gra="graph-name-bg" stroke-width="2px" class="i-icon-bg" x="0" y="0" width="141.5" height="36.78999710083008" fill-opacity="0" fill="#48385D"></rect> <!----> <!----> </g> <g transform="translate(0,0)" fill="#48385D"><g data-gra="path-name-1" fill="#48385D"><g transform="scale(1)" fill="#48385D"><path d="M5.40-40.69L20.41-40.69L33.48-17.62L36.59-40.69L47.26-40.69L42.25-3.90L29.77-3.90L17.29-26.39L14.17-3.90L2.93-3.90L7.93-38.22L5.40-40.69ZM65.45-40.69L91.06-40.69L96.00-3.90L84.83-3.90L83.53-13.91L67.92-13.91L63.57-3.90L52.98-3.90L67.34-38.87L65.45-40.69ZM81.06-34.45L76.70-34.45L70.46-20.15L82.94-20.15L81.06-34.45ZM127.01-3.90L109.53-3.90L102.64-38.87L101.40-40.69L114.53-40.69L119.47-15.15L131.95-40.69L144.43-40.69L127.01-3.90Z" transform="translate(-2.9250000000000003, 40.690000000000005)" fill="#48385D"></path></g></g></g></g></g></g> <!----> <!----></g><mask id="4bceb3de-f4bd-43b6-9cc5-1aff818cec24"><g fill="#FFFFFF"><rect data-gra="graph-name-bg" stroke-width="2px" class="i-icon-bg" x="0" y="0" width="79.4800033569336" height="46.78999710083008" fill="#FFFFFF"></rect>   </g> <g transform="translate(5,5)" fill="black"><g data-gra="path-name"><g transform="scale(1)"><path d="M24.77-3.90L12.29-3.90L16.64-34.45L2.93-34.45L3.58-40.69L43.48-40.69L42.25-34.45L29.12-34.45L24.77-3.90ZM72.41-22.36L71.31-15.73L49.14-15.73L50.18-22.36L72.41-22.36Z" transform="translate(-2.9250000000000003, 40.690000000000005)"></path></g></g></g></mask><defs v-gra="od"></defs></svg>